<svg xmlns="http://www.w3.org/2000/svg" xmlns:gf="http://glowforge.com/namespaces/gf" xmlns:xlink="http://www.w3.org/1999/xlink" width="20in" height="13.875in" viewBox="0 0 1920 1332"><gf:laserdefs><gf:laserdef class="l5a4238b8-e7b8-477f-92ff-8dd405e641f6" order="0" type="cut" power="100" speed="685" passes="1" corner="50" materialid="UNKNOWN" settingid="cut::HEAT:5143052186550272::MANUAL_SETTING"></gf:laserdef></gf:laserdefs><g id="oEw"><g id="oE"><g id="ge9288377-fbb1-4ea0-af46-565b5ba76fde"><path class="e l5a4238b8-e7b8-477f-92ff-8dd405e641f6 l5a4238b8-e7b8-477f-92ff-8dd405e641f6" id="e0" transform="matrix(-1,4.650418413463295e-17,-4.650418413463295e-17,-1,2119.087975662102,786.9184055566718)" d="M1356.850391 -0.00000748L1356.850391 11.33857517L1470.23621748 11.33857517L1470.23621748 141.59620087L1470.23621748 143.6220394L1481.57480013 143.6220394L1481.57480013 257.0078659L1470.23621748 257.0078659L1470.23621748 389.29133013L1470.23621748 521.57479437L1481.57480013 521.57479437L1481.57480013 634.96062085L1470.23621748 634.96062085L1470.23621748 636.9864594L1470.23621748 767.2440851L1356.850391 767.2440851L1356.850391 778.58266774L1243.4645645 778.58266774L1243.4645645 767.2440851L1130.078738 767.2440851L1130.078738 636.9864594L1130.078738 629.34802014L1130.15810775 627.80219187L1130.39621694 626.27526528L1130.7855107 624.77479526L1131.32976648 623.3272384L1132.0176375 621.9401496L1132.8453463 620.63243053L1133.80157496 619.41542796L1134.87873973 618.30045984L1136.06173082 617.3026648L1137.3429933 616.4333752L1138.70362553 615.69636847L1140.13228072 615.102977L1141.61764093 614.6607845L1141.68188644 614.64566028L1147.1999932 612.96377167L1151.0173241 611.32813522L1153.01291418 610.4730615L1159.23023873 606.95809974L1160.52847092 606.02456462L1165.98424973 602.10140742L1173.41102195 595.41541937L1181.65039316 586.17825312L1181.97920444 585.716712L1190.80818968 573.32409065L1200.8692873 555.329754L1209.90614048 534.5158959L1217.07487816 513.13889476L1217.66550864 511.377622L1224.02645564 486.2891235L1228.88692542 459.65101205L1232.163778 431.8903848L1233.8116479 403.44566037L1233.80792092 389.29133013L1233.804093 374.7741645L1232.13354396 346.3370004L1228.83401226 318.58392804L1223.9546408 291.96471828L1217.5785768 266.89889168L1217.08886338 265.4437655L1209.80031417 243.78707437L1200.74834396 223.0034503L1190.6985787 205.0809429L1181.97920444 192.87886657L1181.5483443 192.2759017L1173.316528 183.07652438L1165.90110255 176.41321547L1160.52501066 172.55809564L1159.15464645 171.57542482L1157.83683495 170.83315562L1152.94109935 168.07558727L1147.13197024 165.592432L1140.13228072 163.47968326L1138.70362553 162.8862918L1137.3429933 162.14928507L1136.06173082 161.27999546L1135.0530648 160.42923267L1134.87873973 160.28220042L1133.80157496 159.1672323L1132.8453463 157.95022973L1132.0176375 156.64251066L1131.7752174 156.15367673L1131.32976648 155.25542186L1130.7855107 153.807865L1130.39621694 152.30739498L1130.15810775 150.7804684L1130.078738 149.23464012L1130.078738 141.59620087L1130.078738 11.33857517L1243.4645645 11.33857517L1243.4645645 -0.00000748L1356.850391 -0.00000748z"></path></g><g id="g22709f99-a830-42ed-8b4e-0d6287b0b4e0"><path class="e l5a4238b8-e7b8-477f-92ff-8dd405e641f6 l5a4238b8-e7b8-477f-92ff-8dd405e641f6" id="e1" transform="matrix(-0.9999999999999998,0,0,-0.9999999999999998,2761.0757044133406,1006.6611426750962)" d="M1606.29921008 778.58266774L1606.29921008 767.2440851L1492.9133836 767.2440851L1492.9133836 636.9864594L1492.9133836 634.96062085L1481.57480094 634.96062085L1481.57480094 521.57479437L1492.9133836 521.57479437L1492.9133836 389.29133013L1492.9133836 257.0078659L1481.57480094 257.0078659L1481.57480094 143.6220394L1492.9133836 143.6220394L1492.9133836 141.59620087L1492.9133836 11.33857517L1606.29921008 11.33857517L1606.29921008 -0.00000748L1719.68503657 -0.00000748L1719.68503657 11.33857517L1833.07086306 11.33857517L1833.07086306 141.59620087L1833.07086306 149.23464012L1832.99149332 150.7804684L1832.75338413 152.30739498L1832.36409037 153.807865L1831.8198346 155.25542186L1831.13196358 156.64251066L1830.30425477 157.95022973L1829.3480261 159.1672323L1828.27086134 160.28220042L1827.08787025 161.27999546L1825.80660776 162.14928507L1824.44597554 162.8862918L1823.01732035 163.47968326L1821.53196014 163.92187576L1821.46771463 163.93699998L1815.94960787 165.6188886L1812.13227697 167.25452504L1810.1366869 168.10959875L1803.91936234 171.62456052L1802.62113015 172.55809564L1797.16535134 176.48125284L1789.73857912 183.1672409L1781.4992079 192.40440714L1781.17039663 192.86594826L1772.3414114 205.2585696L1762.28031378 223.25290627L1753.2434606 244.06676437L1746.0747229 265.4437655L1745.48409243 267.20503826L1739.12314543 292.29353677L1734.26267565 318.9316482L1730.98582308 346.69227546L1729.33795316 375.1369999L1729.34168015 389.29133013L1729.34550806 403.80849575L1731.0160571 432.24565987L1734.3155888 459.99873222L1739.19496026 486.61794198L1745.57102427 511.68376858L1746.0607377 513.13889476L1753.3492869 534.7955859L1762.4012571 555.57920996L1772.45102236 573.50171737L1781.17039663 585.7037937L1781.60125677 586.30675856L1789.83307308 595.50613588L1797.24849852 602.1694448L1802.6245904 606.02456462L1803.99495462 607.00723544L1805.31276612 607.74950464L1810.20850172 610.507073L1816.01763083 612.99022825L1823.01732035 615.102977L1824.44597554 615.69636847L1825.80660776 616.4333752L1827.08787025 617.3026648L1828.09653628 618.1534276L1828.27086134 618.30045984L1829.3480261 619.41542796L1830.30425477 620.63243053L1831.13196358 621.9401496L1831.37438368 622.42898353L1831.8198346 623.3272384L1832.36409037 624.77479526L1832.75338413 626.27526528L1832.99149332 627.80219187L1833.07086306 629.34802014L1833.07086306 636.9864594L1833.07086306 767.2440851L1719.68503657 767.2440851L1719.68503657 778.58266774L1606.29921008 778.58266774z"></path></g><g id="g92c7d8c8-c87b-478f-a01f-5e2bb6f0a9f7"><path class="e l5a4238b8-e7b8-477f-92ff-8dd405e641f6 l5a4238b8-e7b8-477f-92ff-8dd405e641f6" id="e2" transform="matrix(-1.3877787807814457e-17,0.9999999999999993,-0.9999999999999993,-1.3877787807814457e-17,709.8089391725467,8.335739296671392)" d="M778.58267374 578.26770832L767.2440911 578.26770832L767.2440911 691.6535348L636.9864654 691.6535348L634.96062685 691.6535348L634.96062685 702.99211746L521.57480037 702.99211746L521.57480037 691.6535348L389.29133613 691.6535348L257.0078719 691.6535348L257.0078719 702.99211746L143.6220454 702.99211746L143.6220454 691.6535348L141.59620687 691.6535348L11.33858117 691.6535348L11.33858117 578.26770832L-0.00000148 578.26770832L-0.00000148 464.88188183L11.33858117 464.88188183L11.33858117 351.49605534L141.59620687 351.49605534L149.23464612 351.49605534L150.7804744 351.57542508L152.30740098 351.81353427L153.807871 352.20282803L155.25542786 352.7470838L156.64251666 353.43495482L157.95023573 354.26266363L159.1672383 355.2188923L160.28220642 356.29605706L161.28000146 357.47904815L162.14929107 358.76031064L162.8862978 360.12094286L163.47968926 361.54959805L163.92188176 363.03495826L163.93700598 363.09920377L165.6188946 368.61731053L167.25453104 372.43464143L168.10960475 374.4302315L171.62456652 380.64755606L172.55810164 381.94578825L176.48125884 387.40156706L183.1672469 394.82833928L192.40441314 403.0677105L192.86595426 403.39652177L205.2585756 412.225507L223.25291227 422.28660462L244.06677037 431.3234578L265.4437715 438.4921955L267.20504426 439.08282597L292.29354277 445.44377297L318.9316542 450.30424275L346.69228146 453.58109532L375.1370059 455.22896524L389.29133613 455.22523825L403.80850175 455.22141034L432.24566587 453.5508613L459.99873822 450.2513296L486.61794798 445.37195814L511.68377458 438.99589413L513.13890076 438.5061807L534.7955919 431.2176315L555.57921596 422.1656613L573.50172337 412.11589604L585.7037997 403.39652177L586.30676456 402.96566163L595.50614188 394.73384532L602.1694508 387.31841988L606.02457062 381.942328L607.00724144 380.57196378L607.74951064 379.25415228L610.507079 374.35841668L612.99023425 368.54928757L615.102983 361.54959805L615.69637447 360.12094286L616.4333812 358.76031064L617.3026708 357.47904815L618.1534336 356.47038212L618.30046584 356.29605706L619.41543396 355.2188923L620.63243653 354.26266363L621.9401556 353.43495482L622.42898953 353.19253472L623.3272444 352.7470838L624.77480126 352.20282803L626.27527128 351.81353427L627.80219787 351.57542508L629.34802614 351.49605534L636.9864654 351.49605534L767.2440911 351.49605534L767.2440911 464.88188183L778.58267374 464.88188183L778.58267374 578.26770832z"></path></g><g id="g1"><path class="e l5a4238b8-e7b8-477f-92ff-8dd405e641f6 l5a4238b8-e7b8-477f-92ff-8dd405e641f6" id="e3" transform="matrix(-1,4.650418413463295e-17,-4.650418413463295e-17,-1,2756.275703603342,786.9184055566716)" d="M1356.850391 -0.00000748L1356.850391 11.33857517L1470.23621748 11.33857517L1470.23621748 141.59620087L1470.23621748 143.6220394L1481.57480013 143.6220394L1481.57480013 257.0078659L1470.23621748 257.0078659L1470.23621748 389.29133013L1470.23621748 521.57479437L1481.57480013 521.57479437L1481.57480013 634.96062085L1470.23621748 634.96062085L1470.23621748 636.9864594L1470.23621748 767.2440851L1356.850391 767.2440851L1356.850391 778.58266774L1243.4645645 778.58266774L1243.4645645 767.2440851L1130.078738 767.2440851L1130.078738 636.9864594L1130.078738 629.34802014L1130.15810775 627.80219187L1130.39621694 626.27526528L1130.7855107 624.77479526L1131.32976648 623.3272384L1132.0176375 621.9401496L1132.8453463 620.63243053L1133.80157496 619.41542796L1134.87873973 618.30045984L1136.06173082 617.3026648L1137.3429933 616.4333752L1138.70362553 615.69636847L1140.13228072 615.102977L1141.61764093 614.6607845L1141.68188644 614.64566028L1147.1999932 612.96377167L1151.0173241 611.32813522L1153.01291418 610.4730615L1159.23023873 606.95809974L1160.52847092 606.02456462L1165.98424973 602.10140742L1173.41102195 595.41541937L1181.65039316 586.17825312L1181.97920444 585.716712L1190.80818968 573.32409065L1200.8692873 555.329754L1209.90614048 534.5158959L1217.07487816 513.13889476L1217.66550864 511.377622L1224.02645564 486.2891235L1228.88692542 459.65101205L1232.163778 431.8903848L1233.8116479 403.44566037L1233.80792092 389.29133013L1233.804093 374.7741645L1232.13354396 346.3370004L1228.83401226 318.58392804L1223.9546408 291.96471828L1217.5785768 266.89889168L1217.08886338 265.4437655L1209.80031417 243.78707437L1200.74834396 223.0034503L1190.6985787 205.0809429L1181.97920444 192.87886657L1181.5483443 192.2759017L1173.316528 183.07652438L1165.90110255 176.41321547L1160.52501066 172.55809564L1159.15464645 171.57542482L1157.83683495 170.83315562L1152.94109935 168.07558727L1147.13197024 165.592432L1140.13228072 163.47968326L1138.70362553 162.8862918L1137.3429933 162.14928507L1136.06173082 161.27999546L1135.0530648 160.42923267L1134.87873973 160.28220042L1133.80157496 159.1672323L1132.8453463 157.95022973L1132.0176375 156.64251066L1131.7752174 156.15367673L1131.32976648 155.25542186L1130.7855107 153.807865L1130.39621694 152.30739498L1130.15810775 150.7804684L1130.078738 149.23464012L1130.078738 141.59620087L1130.078738 11.33857517L1243.4645645 11.33857517L1243.4645645 -0.00000748L1356.850391 -0.00000748z"></path></g><g id="g4554ac33-3359-412a-9f2f-273247ecdbe5"><path class="e l5a4238b8-e7b8-477f-92ff-8dd405e641f6 l5a4238b8-e7b8-477f-92ff-8dd405e641f6" id="e4" transform="matrix(-0.9999999999999998,-7.425975975026191e-17,7.425975975026191e-17,-0.9999999999999998,1420.895850602103,1006.6611426750961)" d="M903.3070842 778.58266774L903.3070842 767.2440851L789.92125772 767.2440851L789.92125772 636.9864594L789.92125772 634.96062085L778.58267507 634.96062085L778.58267507 521.57479437L789.92125772 521.57479437L789.92125772 389.29133013L789.92125772 257.0078659L778.58267507 257.0078659L778.58267507 143.6220394L789.92125772 143.6220394L789.92125772 141.59620087L789.92125772 11.33857517L903.3070842 11.33857517L903.3070842 -0.00000748L1016.6929107 -0.00000748L1016.6929107 11.33857517L1130.0787372 11.33857517L1130.0787372 141.59620087L1130.0787372 149.23464012L1129.99936745 150.7804684L1129.76125826 152.30739498L1129.3719645 153.807865L1128.82770872 155.25542186L1128.1398377 156.64251066L1127.3121289 157.95022973L1126.35590024 159.1672323L1125.27873547 160.28220042L1124.09574438 161.27999546L1122.8144819 162.14928507L1121.45384967 162.8862918L1120.02519448 163.47968326L1118.53983427 163.92187576L1118.47558876 163.93699998L1112.957482 165.6188886L1109.1401511 167.25452504L1107.14456102 168.10959875L1100.92723647 171.62456052L1099.62900428 172.55809564L1094.17322547 176.48125284L1086.74645325 183.1672409L1078.50708204 192.40440714L1078.17827076 192.86594826L1069.34928552 205.2585696L1059.2881879 223.25290627L1050.25133472 244.06676437L1043.08259704 265.4437655L1042.49196656 267.20503826L1036.13101956 292.29353677L1031.27054978 318.9316482L1027.9936972 346.69227546L1026.3458273 375.1369999L1026.34955428 389.29133013L1026.3533822 403.80849575L1028.02393124 432.24565987L1031.32346294 459.99873222L1036.2028344 486.61794198L1042.5788984 511.68376858L1043.06861182 513.13889476L1050.35716103 534.7955859L1059.40913124 555.57920996L1069.4588965 573.50171737L1078.17827076 585.7037937L1078.6091309 586.30675856L1086.8409472 595.50613588L1094.25637265 602.1694448L1099.63246454 606.02456462L1101.00282875 607.00723544L1102.32064025 607.74950464L1107.21637585 610.507073L1113.02550496 612.99022825L1120.02519448 615.102977L1121.45384967 615.69636847L1122.8144819 616.4333752L1124.09574438 617.3026648L1125.1044104 618.1534276L1125.27873547 618.30045984L1126.35590024 619.41542796L1127.3121289 620.63243053L1128.1398377 621.9401496L1128.3822578 622.42898353L1128.82770872 623.3272384L1129.3719645 624.77479526L1129.76125826 626.27526528L1129.99936745 627.80219187L1130.0787372 629.34802014L1130.0787372 636.9864594L1130.0787372 767.2440851L1016.6929107 767.2440851L1016.6929107 778.58266774L903.3070842 778.58266774z"></path></g></g></g><style type="text/css">.l5a4238b8-e7b8-477f-92ff-8dd405e641f6 { stroke: #000000; fill: none; }</style><text y="1172" x="20">
  <tspan>Glowforge® print settings</tspan>
  <tspan x="20" dy="20">Design id: 7BG1AYAELTRJAL1ECEVKFWVPJPPY7</tspan>
  <tspan x="20" dy="20">Timestamp: Thu Nov 02 2023 14:05:54 GMT-0700 (Pacific Daylight Time)</tspan>
  <tspan x="20" dy="20">Version: 1.0</tspan>
  <tspan x="20" dy="20" fill="#000000">Step 0: #000000 Cut::MDF 3mm::Manual</tspan>
  <tspan x="20" dy="20" fill="#000000">Step 0: #000000 Speed=160</tspan>
  <tspan x="20" dy="20" fill="#000000">Step 0: #000000 Precision Power=full</tspan>
  <tspan x="20" dy="20" fill="#000000">Step 0: #000000 # of Passes=1</tspan>
</text></svg>